<svg xmlns="http://www.w3.org/2000/svg" viewBox="0 0 960 540">
  <defs>
    <linearGradient id="bg" x1="0" x2="1" y1="0" y2="1">
      <stop offset="0" stop-color="#eaf2ff"/>
      <stop offset="1" stop-color="#f8fbff"/>
    </linearGradient>
    <linearGradient id="g" x1="0" x2="1" y1="0" y2="0">
      <stop offset="0" stop-color="#2b66ff"/>
      <stop offset="1" stop-color="#0bb5ff"/>
    </linearGradient>
  </defs>
  <rect width="960" height="540" rx="24" fill="url(#bg)"/>
  <g opacity=".6">
    <circle cx="160" cy="140" r="60" fill="#dbe7ff"/>
    <circle cx="780" cy="120" r="40" fill="#d7f2ff"/>
    <circle cx="860" cy="400" r="70" fill="#e3ebff"/>
  </g>
  <rect x="130" y="170" width="700" height="220" rx="18" fill="#fff" stroke="#e4ecff"/>
  <rect x="170" y="210" width="300" height="30" rx="8" fill="#eef4ff"/>
  <rect x="170" y="250" width="520" height="22" rx="6" fill="#eef4ff"/>
  <rect x="170" y="280" width="520" height="22" rx="6" fill="#eef4ff"/>
  <rect x="170" y="310" width="360" height="22" rx="6" fill="#eef4ff"/>
  <rect x="560" y="210" width="220" height="110" rx="10" fill="url(#g)" opacity=".85"/>
  <rect x="600" y="230" width="140" height="16" rx="8" fill="#fff" opacity=".9"/>
  <rect x="600" y="254" width="120" height="12" rx="6" fill="#fff" opacity=".9"/>
</svg>

